<svg id="レイヤー_1" data-name="レイヤー 1" xmlns="http://www.w3.org/2000/svg" xmlns:xlink="http://www.w3.org/1999/xlink" viewBox="0 0 1500 500"><defs><style>.cls-1{fill:#fff;}.cls-2{fill:#3a3d3f;}.cls-3,.cls-7{fill:#c1c4c6;}.cls-4{fill:#f2863d;}.cls-5{fill:#61a0d8;}.cls-6{mask:url(#mask);}.cls-7{stroke:#f2863d;stroke-miterlimit:10;stroke-width:20px;}</style><mask id="mask" x="-37.14" y="-13.14" width="531.28" height="531.28" maskUnits="userSpaceOnUse"><rect class="cls-1" x="67" y="91" width="323" height="323"/></mask></defs><title> アートボード 1</title><rect class="cls-2" x="-73" y="-38" width="1608" height="575"/><path class="cls-3" d="M510.86,251.76a11.8,11.8,0,0,1-3.47,8.8,12.06,12.06,0,0,1-8.85,3.41H451.67a11.7,11.7,0,0,1-12.22-12.21v-160h15.3V250.44h40.82V91.79h15.29Z"/><path class="cls-3" d="M608.93,105.32H582.31V264H567V105.32H540.17V91.79h68.76Z"/><path class="cls-3" d="M707.56,264H692.38l-6.06-38.28H652.11L646.06,264H631.31v-.44L662,91.35h15.07Zm-23.22-51.82-15.07-93.3-15.18,93.3Z"/><path class="cls-3" d="M811.35,264H794.52L754.8,181.24V264H739.51V91.79H754.8v77.34l36.09-77.34H807.5v1l-39,82Z"/><path class="cls-3" d="M910.2,251.76a11.8,11.8,0,0,1-3.47,8.8,12.06,12.06,0,0,1-8.85,3.41H849.69a11.69,11.69,0,0,1-12.22-12.21V104a11.69,11.69,0,0,1,12.22-12.21h48.19a12.1,12.1,0,0,1,8.85,3.41,11.81,11.81,0,0,1,3.47,8.8Zm-15.29-1.32V105.32H852.77V250.44Z"/><g id="_グループ_" data-name="&lt;グループ&gt;"><path class="cls-4" d="M1253.86,168a26,26,0,0,0-7,8.89,18.8,18.8,0,0,0,3.55,7.75c7.25,9.06,23.94,11.46,35.08,2.38a25.94,25.94,0,0,0,7-9.07,18.64,18.64,0,0,0-3.52-7.55C1281.78,161.33,1265,158.93,1253.86,168Z"/><path class="cls-5" d="M1252,165.89c14.26-11.6,33.33-11.6,42.6,0l.12.16h0l.51.63a22.84,22.84,0,0,0-4.47-14.9c-7.24-9.06-22.84-11.58-34-2.5a29.38,29.38,0,0,0-10.46,22.25A39.75,39.75,0,0,1,1252,165.89Z"/><path class="cls-5" d="M1287.36,189.15c-14.22,11.59-33.23,11.6-42.47,0l-.12-.15h0l-.67-.83c-.2,5.68,1.32,11.16,4.49,15.11,7.27,9.08,22.91,11.6,34.08,2.52a29.4,29.4,0,0,0,10.5-22.47A41.3,41.3,0,0,1,1287.36,189.15Z"/><path class="cls-3" d="M1269.38,89c24.36,17.79,45.1,12.16,65.88,28.64a48.46,48.46,0,0,0-6.67-11.07C1314.87,89.4,1308.36,104.29,1269.38,89Z"/><path class="cls-3" d="M1346.73,129.2c-2.91-5.41-7.66-8.56-11.47-11.59,10.87,25.14-3.17,73.57-10,86.56L1299.56,172c3.06-8.82,2.2-18-3.21-24.81-9.24-11.57-28.25-11.56-42.46,0-8.17,6.66-13,15.7-13.83,24.38l-43.12-54s-13.12,88.69-4,108.19c2.92,6.23,7.63,8.55,11.43,11.57-10.83-25.11,3.17-73.5,10-86.48l25.5,31.93c-3.13,8.87-2.29,18.17,3.17,25,9.27,11.58,28.34,11.57,42.6,0,8.2-6.66,13-15.71,13.87-24.39l43.26,54.05S1356.82,148,1346.73,129.2Zm-89.92,20.06c11.14-9.08,26.74-6.56,34,2.5a22.84,22.84,0,0,1,4.47,14.9l-.51-.63h0l-.12-.16c-9.27-11.58-28.34-11.58-42.6,0a39.75,39.75,0,0,0-5.68,5.62A29.38,29.38,0,0,1,1256.81,149.26Zm35.76,28.7a25.94,25.94,0,0,1-7,9.07c-11.14,9.08-27.83,6.68-35.08-2.38a18.8,18.8,0,0,1-3.55-7.75,26,26,0,0,1,7-8.89c11.17-9.08,27.92-6.68,35.19,2.4A18.64,18.64,0,0,1,1292.57,178Zm-9.9,27.87c-11.17,9.08-26.81,6.56-34.08-2.52-3.17-3.95-4.69-9.43-4.49-15.11l.67.83h0l.12.15c9.24,11.57,28.25,11.56,42.47,0a41.3,41.3,0,0,0,5.81-5.79A29.4,29.4,0,0,1,1282.67,205.83Z"/><path class="cls-3" d="M1270.05,266c-24.28-17.76-45-12.13-65.67-28.59a48.09,48.09,0,0,0,6.65,11.06C1224.71,265.59,1231.19,250.71,1270.05,266Z"/></g><path class="cls-3" d="M1063.66,105.32H1037V264h-15.29V105.32H994.89V91.79h68.77Z"/><path class="cls-3" d="M1164.26,251.76a11.79,11.79,0,0,1-3.46,8.8,12.09,12.09,0,0,1-8.86,3.41h-46.87a11.68,11.68,0,0,1-12.21-12.21v-160h15.29V250.44H1149V91.79h15.29Z"/><path class="cls-3" d="M1433.54,264H1377V91.79h55.89v13.53h-40.6v64.26h37v13.75h-37v67.11h41.26Z"/><path class="cls-3" d="M439,409.94a43.66,43.66,0,0,0,19.32-17.45,49.78,49.78,0,0,0,7.14-26.27v-7.3h3.05v7.3a49.78,49.78,0,0,0,7.14,26.27A43.66,43.66,0,0,0,495,409.94l-1.59,2.47A44.29,44.29,0,0,1,476.76,399a52.39,52.39,0,0,1-9.65-20.37,52.22,52.22,0,0,1-9.71,20.34,44.45,44.45,0,0,1-16.81,13.48Z"/><path class="cls-3" d="M507.6,363.36h48.86v2.86H533.61V406.7h24.75v2.86H505.69V406.7h24.75V366.22H507.6Z"/><path class="cls-3" d="M569.66,384.37v-2.8H583.3V366.85h-6.22A66.69,66.69,0,0,1,572,379.23l-2.48-1.08a77.64,77.64,0,0,0,7.11-20.69l2.73.44c-.38,2.08-.87,4.17-1.46,6.29h19.16v2.66H586.28v14.72h11.87v2.8h-12c0,.71-.15,1.75-.32,3.1q6.85,10.41,12.18,19.61l-2.47,1.59q-4-7-10.54-17.26a39.51,39.51,0,0,1-5.23,12.31,29.16,29.16,0,0,1-8.41,8.69L569.59,410a29,29,0,0,0,9.33-10.66,37.67,37.67,0,0,0,4.25-15Zm54.13-21.64v49.81h-3v-4.19H603.23v4.19h-2.92V362.73Zm-20.56,43H620.8V365.46H603.23Z"/><path class="cls-3" d="M651.71,362.92l2.6-1.21q4.76,7,9,14.79l-2.6,1.27q-1.08-2-2.16-3.94-12.12,1.53-25.38,2l-.13-2.6,4.19-.19a155.1,155.1,0,0,0,7.11-14.47l3,.64a149.2,149.2,0,0,1-6.73,13.64q7.81-.45,16.5-1.46Q654.51,367,651.71,362.92Zm8,45.62c0,2.12-.25,3.43-.76,3.94s-1.67.76-3.49.76q-2.22,0-6.92-.32l.07-2.66q4.95.32,5.71.31a5.17,5.17,0,0,0,2.19-.25c.23-.17.35-.76.35-1.78v-6.79H639.78v11.74h-3V379.16h22.9Zm-19.92-19.29h17.07v-7.49H639.78Zm0,2.48v7.55h17.07v-7.55Zm36.42-10c2.37,0,4.08,0,5.14-.06,2.24-.13,3.59-.56,4-1.3s.88-3.29,1.3-7.65l2.86.32q-.31,2.93-.48,4.38a17.43,17.43,0,0,1-.57,2.95,8.2,8.2,0,0,1-.76,2,3.55,3.55,0,0,1-1.24,1.05,4.86,4.86,0,0,1-1.84.63c-.63.09-1.52.15-2.66.19-2.46.09-4.42.13-5.9.13s-3.56,0-5.84-.13-3.59-.34-4.16-.76-.86-1.44-.86-3.05V359.81h3v9.83a103.32,103.32,0,0,0,19.42-7.74l1.14,2.41a96.58,96.58,0,0,1-20.56,8.06v7.17c0,1,.12,1.57.35,1.78a5,5,0,0,0,2.38.38C672,381.74,673.75,381.76,676.2,381.76Zm0,28.81c1.31,0,3,0,5.14-.12l2-.1a3.08,3.08,0,0,0,1.34-.48,3.16,3.16,0,0,0,.95-.72,7.32,7.32,0,0,0,.5-1.65,22,22,0,0,0,.45-2.45c.08-.72.21-2,.38-3.81l2.86.39c-.22,2-.39,3.56-.51,4.6a18.46,18.46,0,0,1-.64,3,7.89,7.89,0,0,1-.79,2,3.66,3.66,0,0,1-1.3,1,5.22,5.22,0,0,1-1.87.6c-.62.06-1.54.12-2.76.16-2.46.08-4.42.12-5.9.12s-3.56,0-5.84-.12-3.59-.34-4.16-.76-.86-1.44-.86-3.05V387.35h3v8.75a104.74,104.74,0,0,0,19.42-7.8l1.14,2.47a96.58,96.58,0,0,1-20.56,8.06v9.52c0,1,.12,1.55.35,1.72a7,7,0,0,0,2.38.38C673,410.53,674.76,410.57,676.2,410.57Z"/><path class="cls-3" d="M710.21,362.35a93.27,93.27,0,0,0,0,48.22l-3,.45a96.73,96.73,0,0,1,0-49.12Zm40.43,43.53a59.16,59.16,0,0,1-14.34,2q-7.37,0-12.09-2.72c-3.16-1.82-4.73-4.15-4.73-7,0-1.87.85-4,2.54-6.38a32,32,0,0,1,6.91-6.89l2,2q-8.33,6.54-8.32,11.17,0,2.79,3.71,4.83t9.94,2a59,59,0,0,0,13.77-1.84ZM722.78,370a194.76,194.76,0,0,0,26.27-1.9l.25,2.85a201.35,201.35,0,0,1-26.52,1.91Z"/><path class="cls-3" d="M793.79,359.74q-.31,5.52-.19,13.33a99,99,0,0,0,19-2l.45,2.79a102,102,0,0,1-19.3,2c.09,3.39.17,5.95.26,7.68q.38,10.15.38,10.79,7,3,19.23,12.44L811.81,409q-11.1-8.64-17.39-11.62V399q0,6.68-2.89,9.59t-9.48,2.92q-6,0-9.3-2.7a9.08,9.08,0,0,1-3.33-7.46,8.43,8.43,0,0,1,3.36-7c2.25-1.74,5.33-2.6,9.27-2.6a29.32,29.32,0,0,1,9.2,1.39q-.06-3.36-.32-9.52-.63-15.35-.19-23.92ZM791.31,396a26.44,26.44,0,0,0-9.07-1.52,12.37,12.37,0,0,0-7.24,1.84,5.84,5.84,0,0,0-2.6,5,6.5,6.5,0,0,0,2.54,5.49c1.69,1.29,4.13,1.94,7.3,1.94q5,0,7.07-2.22t2.07-7.56c0-.33,0-.83,0-1.49S791.31,396.38,791.31,396Z"/><path class="cls-3" d="M840.62,364.38q15.28,0,31.6-1.53l.63,3.11q-10.71,8.7-23.79,18.22l.06.12A42.53,42.53,0,0,1,862,382.14q8.82,0,12.76,3.91a13.17,13.17,0,0,1,3.93,9.74,13.32,13.32,0,0,1-6.15,11.42q-6.16,4.32-16.63,4.32-6.85,0-10.63-2.32a7.25,7.25,0,0,1-3.77-6.51,6.48,6.48,0,0,1,3-5.29,13.19,13.19,0,0,1,8.06-2.26,12.14,12.14,0,0,1,7.59,2.13,7,7,0,0,1,2.76,5.87,15.42,15.42,0,0,1-1.08,5.27q6.52-1,10.15-4.35a10.74,10.74,0,0,0,3.62-8.22q0-11.16-14.92-11.17a33.31,33.31,0,0,0-11.39,2.16,80.87,80.87,0,0,0-14.24,7.3l-1.65-2.48a378.91,378.91,0,0,0,35.15-25.82l-.06-.13q-15.87,1.52-27.92,1.52Zm18.15,44.42a13.78,13.78,0,0,0,1.27-5.4,5.06,5.06,0,0,0-1.94-4.19,8.73,8.73,0,0,0-5.49-1.52,10.58,10.58,0,0,0-6,1.49,4.26,4.26,0,0,0-2.22,3.52q0,6.17,11.61,6.16C857.27,408.86,858.17,408.84,858.77,408.8Z"/><path class="cls-3" d="M910.1,410.19l-2.53,2a157.17,157.17,0,0,0-12.82-13.39l2.34-2.22A159.41,159.41,0,0,1,910.1,410.19Z"/><path class="cls-3" d="M988.28,382.14H975v6.29h12.63v2.66H975.72q5.84,5.58,10,10.47l-1.84,1.91a104.64,104.64,0,0,0-8.88-9.71v19.86h-3V394.07A51.29,51.29,0,0,1,960.42,408l-1.77-2.22a46.41,46.41,0,0,0,12.24-14.66h-11.1v-2.66H972v-6.29H959.79v-2.6h7.49q-1.47-6.35-3.3-12.31H960.3v-2.66H972V358h3v6.6h13.32v2.66h-4.56a63,63,0,0,1-4.13,12.31h8.63Zm-18.21-2.6h6.66A62.13,62.13,0,0,0,981,367.23H966.83Q968.87,373.83,970.07,379.54ZM994.18,378H1016v2.85h-7.49v32.24h-3V380.81H994.06a94.18,94.18,0,0,1-2.45,18.88,44,44,0,0,1-5.68,12.91l-2.28-1.9a40.1,40.1,0,0,0,4.63-9.71,69.18,69.18,0,0,0,2.41-13.9q.82-8.88.83-23.41,13.26-1.08,22.08-4.32l.83,2.73a81.1,81.1,0,0,1-20,4.13Q994.44,370.86,994.18,378Z"/><path class="cls-3" d="M1036.83,361.39h3.11q0,6.86-.58,16.31t-.57,15.42q0,16,11.81,16,6.53,0,12.47-5t10.5-14.59l2.73,1.33q-4.77,10.28-11.43,15.74A22.16,22.16,0,0,1,1050.6,412q-14.92,0-14.92-18.91,0-5.89.58-15.35C1036.64,371.46,1036.83,366,1036.83,361.39Z"/><path class="cls-3" d="M1098.57,367.17a92,92,0,0,0-1.33,15.67,44.56,44.56,0,0,0,.92,9.27,30.5,30.5,0,0,0,2.31,7.2,17.29,17.29,0,0,0,3,4.47,4.48,4.48,0,0,0,3,1.65,2.58,2.58,0,0,0,1.14-.31,5.49,5.49,0,0,0,1.56-1.46,17.5,17.5,0,0,0,1.81-2.89,34.18,34.18,0,0,0,1.9-5,69.11,69.11,0,0,0,1.84-7.49l3,.51q-2.16,10.9-5.14,15.29t-6.09,4.38q-4.5,0-8.44-7.24t-3.93-18.4a95.48,95.48,0,0,1,1.39-16Zm31.73,2.28,2.73-1.27q8.57,13.9,10.21,33.13l-3,.19Q1138.55,382.9,1130.3,369.45Z"/><path class="cls-3" d="M1154.79,380.75v-2.6h18.15a112.25,112.25,0,0,0-6.09-11.93h-10.22v-2.6h24.24v-6.48H1184v6.48h24.31v2.6h-10.6a47.47,47.47,0,0,1-5.84,11.93h18.28v2.6Zm8.31,4.95h38.71v27.79h-3.11v-2.85h-32.49v2.85h-3.11Zm3.11,11h32.49V388.3h-32.49Zm0,2.53V408h32.49v-8.82Zm22.09-21.06a48.43,48.43,0,0,0,6.21-11.93h-24.23a130,130,0,0,1,6,11.93Z"/><path class="cls-3" d="M1219.14,386.4a64.17,64.17,0,0,0,12.43-7.87l1.53,2.28a65.78,65.78,0,0,1-12.69,8.12Zm25.12,8.94H1221.1v-2.66H1246V388h-11.42v-24.3H1244a58.56,58.56,0,0,0,1.9-6.16l3,.38q-.63,2.48-1.78,5.78h13.27V388H1249v4.7h24.88v2.66h-23.16q8.19,8.19,24.87,15l-1.14,2.6q-17.07-7.17-25.45-15.67V414h-3V397.25q-8.38,8.5-25.45,15.67l-1.14-2.6Q1236.09,403.53,1244.26,395.34Zm-14.15-22.65a110.88,110.88,0,0,0-10.47-8.63l1.78-2.22a116.35,116.35,0,0,1,10.6,8.69Zm7.43,1.46h19.92v-7.87h-19.92Zm0,2.54v8.75h19.92v-8.75Zm24.37,4.19,1.39-2.42a67.63,67.63,0,0,1,12.69,8.06l-1.58,2.35A67.15,67.15,0,0,0,1261.91,380.88Zm3-8.19-1.91-2.22a116.05,116.05,0,0,0,10.48-8.57l2,2.1A103.42,103.42,0,0,1,1264.89,372.69Z"/><path class="cls-3" d="M1293.38,375v39h-3V381.07a65.3,65.3,0,0,1-6.28,10.21l-1.53-3q8.9-12.24,12.63-29.57l2.92.57A82.47,82.47,0,0,1,1293.38,375Zm47.91-5.08v2.73h-18.08q5.83,15.17,19.22,29.7l-1.84,2.6q-13.2-14.6-19.16-29.83v24.43h12.31v2.61h-12.31V414h-3V402.2h-13.39v-2.61h13.39v-24.3q-6.67,15.3-21,29.76l-2-2.28q15-14.85,21.39-30.08H1298V370h20.44v-11h3v11Z"/><path class="cls-3" d="M1348.65,410.83a97.16,97.16,0,0,0,2.86-16.12l2.47.32a106,106,0,0,1-2.85,16.37Zm55-32.43V395h-12.19a19.08,19.08,0,0,0,5.08,9.27,27.92,27.92,0,0,0,10.15,6.6l-1,2.66a29.51,29.51,0,0,1-9.9-6.41,25.64,25.64,0,0,1-6.09-9.07,25,25,0,0,1-6.19,9.07,30.73,30.73,0,0,1-10,6.41l-1.15-2.66a27.88,27.88,0,0,0,10.16-6.6,19.53,19.53,0,0,0,5.14-9.27h-12.06V378.4h12.5V373h-9v-2.16c-1.65,1.35-3.45,2.71-5.39,4.06l-1.34-2.22H1365v7h7.62v2.41H1365v7.36h8.13v2q0,9.27-.48,14c-.32,3.16-.77,5.24-1.36,6.26a2.81,2.81,0,0,1-2.54,1.52,54.33,54.33,0,0,1-7.17-.57l.06-2.67a54.6,54.6,0,0,0,6.6.57q1.27,0,1.74-3.93a145.14,145.14,0,0,0,.48-14.66h-18.85V360.89H1374v2.53h-9v6.79h7.62v2a90.84,90.84,0,0,0,15.48-14h3a87.17,87.17,0,0,0,15.68,14.15l-1.34,2.47c-1.86-1.31-3.68-2.69-5.45-4.12V373h-9v5.39Zm-41.57-8.19v-6.79h-7.48v6.79Zm0,2.48h-7.48v7h7.48Zm0,9.39h-7.48v7.36h7.48Zm-5.45,27.54q-.26-6.54-1.15-14.21l2.42-.38q.88,7.23,1.2,14.34ZM1362,407q-.7-6-1.78-11.93l2.48-.45c.71,4,1.31,8,1.77,12Zm5.2-2.73q-.63-3.18-2.28-9.52l2.41-.57q1.39,4.89,2.28,9.58Zm20.88-11.68a12.22,12.22,0,0,0,.06-1.46V380.94h-9.77v11.61Zm-8.51-22.08h20.06a77.22,77.22,0,0,1-10-10A82.82,82.82,0,0,1,1379.55,370.47ZM1391,391.16a11.43,11.43,0,0,0,.06,1.39h9.71V380.94H1391v10.22Z"/><path class="cls-3" d="M1418.1,411a8.93,8.93,0,0,1-2.69-6.57,9,9,0,0,1,2.69-6.6,8.89,8.89,0,0,1,6.57-2.73,9.32,9.32,0,0,1,9.33,9.33,8.89,8.89,0,0,1-2.73,6.57,9.07,9.07,0,0,1-6.6,2.69A9,9,0,0,1,1418.1,411Zm1.81-11.36a6.58,6.58,0,0,0-2,4.79,6.69,6.69,0,0,0,6.72,6.72,6.58,6.58,0,0,0,4.79-2,6.41,6.41,0,0,0,2-4.76,6.83,6.83,0,0,0-6.79-6.79A6.41,6.41,0,0,0,1419.91,399.63Z"/><rect class="cls-5" x="67" y="91" width="323" height="323"/><g class="cls-6"><rect class="cls-7" x="-31.72" y="157.04" width="520.43" height="190.92" transform="translate(-111.62 235.53) rotate(-45)"/></g></svg>