<svg id="レイヤー_1" data-name="レイヤー 1" xmlns="http://www.w3.org/2000/svg" xmlns:xlink="http://www.w3.org/1999/xlink" viewBox="0 0 500 500"><defs><style>.cls-1{fill:#f2985a;}.cls-2{fill:#61a0d8;}.cls-3{fill:#77b3e0;}.cls-4{fill:#3a3d3f;}</style><symbol id="UTAKO_TU_N_E" data-name="UTAKO TU[N]E" viewBox="0 0 399.05 443.16"><path class="cls-1" d="M156.93,201.45a65.1,65.1,0,0,0-15.41,23.82,47,47,0,0,0,10.65,18.6c20.19,21.07,62.54,23.28,88.38-2a65.12,65.12,0,0,0,15.56-24.31,46.62,46.62,0,0,0-10.52-18.1C225.34,178.39,182.85,176.17,156.93,201.45Z"/><path class="cls-2" d="M151.87,196.54c33.07-32.26,80.83-36.6,106.67-9.69l.34.36h0l1.42,1.47c-.85-14.06-5.88-27.22-14.57-36.29-20.19-21.07-59.82-23.84-85.65,1.43-15.91,15.56-22.87,38.12-21.16,58.08A102.6,102.6,0,0,1,151.87,196.54Z"/><path class="cls-3" d="M245.6,246.8c-33,32.23-80.57,36.57-106.33,9.69l-.34-.36h0l-1.84-1.93c.77,14.26,5.83,27.64,14.65,36.82,20.26,21.09,60,23.87,85.93-1.41,16.1-15.71,23.07-38.55,21.19-58.65A103.6,103.6,0,0,1,245.6,246.8Z"/><path class="cls-4" d="M177.89,0c65,39,115.69,20.22,171.46,56.79a121.32,121.32,0,0,0-19.21-26.21C291.89-9.25,279,29.52,177.89,0Z"/><path class="cls-4" d="M380.69,83.21c-8.5-12.9-21.1-19.71-31.34-26.42,32.91,60.49,8.72,184.94-5.36,219l-71.7-74.64c5.66-22.77,1.41-45.68-13.65-61.4-25.77-26.88-73.38-22.54-106.34,9.69-19,18.54-28.94,42.26-29.1,64.19L3,88.22S-9.77,313.3,17.51,360.06c8.72,14.95,21,19.68,31.24,26.39C15.94,326,40.05,201.68,54.09,167.63l71.09,74.17c-5.82,22.92-1.6,46,13.6,61.86,25.85,26.91,73.61,22.57,106.68-9.69,19-18.55,29-42.29,29.2-64.24l120.6,125.56S410.23,128,380.69,83.21ZM160.08,153.82c25.83-25.27,65.46-22.5,85.65-1.43,8.69,9.07,13.72,22.23,14.57,36.29l-1.42-1.47h0l-.34-.36c-25.84-26.91-73.6-22.57-106.67,9.69a102.6,102.6,0,0,0-13,15.36C137.21,191.94,144.17,169.38,160.08,153.82Zm96,63.76a65.12,65.12,0,0,1-15.56,24.31c-25.84,25.26-68.19,23.05-88.38,2a47,47,0,0,1-10.65-18.6,65.1,65.1,0,0,1,15.41-23.82c25.92-25.28,68.41-23.06,88.66-2A46.62,46.62,0,0,1,256.11,217.58Zm-18.45,72C211.74,314.9,172,312.12,151.73,291c-8.82-9.18-13.88-22.56-14.65-36.82l1.84,1.93h0l.34.36C165,283.37,212.64,279,245.6,246.8A103.6,103.6,0,0,0,258.85,231C260.73,251.07,253.76,273.91,237.66,289.62Z"/><path class="cls-4" d="M219.67,443.16c-64.81-39-115.32-20.19-170.92-56.71A121.75,121.75,0,0,0,67.9,412.63C106,452.42,118.91,413.68,219.67,443.16Z"/></symbol></defs><title>OPAQUEUTAKO_LOGO</title><use id="UTAKO_TU_N_E-3" data-name="UTAKO TU[N]E" width="399.05" height="443.16" transform="translate(38.14 6.58) rotate(0.87) scale(1.08)" xlink:href="#UTAKO_TU_N_E"/></svg>